<?xml version="1.0" standalone="no"?><!DOCTYPE svg PUBLIC "-//W3C//DTD SVG 1.1//EN" "http://www.w3.org/Graphics/SVG/1.1/DTD/svg11.dtd"><svg t="1508594163143" class="icon" style="" viewBox="0 0 1024 1024" version="1.1" xmlns="http://www.w3.org/2000/svg" p-id="17947" xmlns:xlink="http://www.w3.org/1999/xlink" width="48" height="48"><defs><style type="text/css"></style></defs><path d="M0 0" p-id="17948" fill="#ffffff"></path><path d="M1024 226.133333a106.632533 106.632533 0 0 0-106.666667-106.666666H106.666667A106.643911 106.643911 0 0 0 0 226.133333v571.733334A106.632533 106.632533 0 0 0 106.666667 904.533333h810.666666A106.609778 106.609778 0 0 0 1024 797.866667v-571.733334zM899.492978 753.322667a21.424356 21.424356 0 0 1-30.151111 1.399466l-218.3168-199.338666-16.440889 17.999644c-30.287644 32.8704-70.690133 50.961067-113.982578 50.961067-43.246933 0-83.694933-18.090667-113.902933-50.938311l-16.452267-18.0224-218.248533 199.338666a21.447111 21.447111 0 0 1-30.1056-1.399466 21.390222 21.390222 0 0 1 1.365333-30.139734l218.248533-199.2704-219.648-240.059733a21.390222 21.390222 0 0 1 1.365334-30.139733 21.367467 21.367467 0 0 1 30.173866 1.365333l264.8064 289.518933c43.963733 47.775289 120.923022 47.775289 164.977778-0.045511l264.2944-289.132089a21.333333 21.333333 0 0 1 30.173867-1.365333c8.669867 7.953067 9.250133 21.435733 1.353955 30.173867l-219.136 239.650133 218.3168 199.281778c8.521956 7.975822 9.181867 21.412978 1.308445 30.162489z" p-id="17949" fill="#ffffff"></path></svg>