<?xml version="1.0" standalone="no"?><!DOCTYPE svg PUBLIC "-//W3C//DTD SVG 1.1//EN" "http://www.w3.org/Graphics/SVG/1.1/DTD/svg11.dtd"><svg t="1508594236970" class="icon" style="" viewBox="0 0 1024 1024" version="1.1" xmlns="http://www.w3.org/2000/svg" p-id="24723" xmlns:xlink="http://www.w3.org/1999/xlink" width="48" height="48"><defs><style type="text/css"></style></defs><path d="M654.193806 626.061938c-6.137862-2.045954-46.033966-20.45954-21.482517-96.15984l0 0C697.158841 463.408591 747.284715 354.973027 747.284715 248.583417 747.284715 85.93007 637.826174 0 512 0 386.173826 0 277.738262 85.93007 277.738262 248.583417c0 106.38961 49.102897 214.825175 114.573427 281.318681 25.574426 66.493506-20.45954 92.067932-29.666334 95.136863C230.681319 674.141858 76.211788 761.094905 76.211788 847.024975l0 32.735265c0 117.642358 227.100899 144.23976 437.834166 144.23976 210.733267 0 434.765235-26.597403 434.765235-144.23976l0-32.735265C947.788212 758.025974 792.295704 672.095904 654.193806 626.061938L654.193806 626.061938zM654.193806 626.061938" p-id="24724" fill="#ffffff"></path></svg>